<mxfile host="drawio-plugin" modified="2021-10-31T13:08:11.268Z" agent="5.0 (Windows NT 6.2; Win64; x64) AppleWebKit/537.36 (KHTML, like Gecko) Chrome/84.0.4147.105 Safari/537.36" etag="aueloQSxqMDGjOj8MXhZ" version="14.7.4" type="embed"><diagram id="23iRSUPoRavnBvh4doch" name="Page-1"><mxGraphModel dx="978" dy="430" grid="1" gridSize="10" guides="1" tooltips="1" connect="1" arrows="1" fold="1" page="1" pageScale="1" pageWidth="827" pageHeight="1169" math="0" shadow="0"><root><mxCell id="0"/><mxCell id="1" parent="0"/><mxCell id="2" value="Registration form" style="rounded=0;whiteSpace=wrap;html=1;fillColor=#dae8fc;strokeColor=#6c8ebf;" parent="1" vertex="1"><mxGeometry x="240" y="40" width="276" height="60" as="geometry"/></mxCell><mxCell id="3" value="First Name" style="rounded=0;whiteSpace=wrap;html=1;fillColor=#f8cecc;strokeColor=#b85450;" parent="1" vertex="1"><mxGeometry x="240" y="120" width="120" height="40" as="geometry"/></mxCell><mxCell id="4" value="Last Name" style="rounded=0;whiteSpace=wrap;html=1;fillColor=#f8cecc;strokeColor=#b85450;" parent="1" vertex="1"><mxGeometry x="380" y="120" width="136" height="40" as="geometry"/></mxCell><mxCell id="5" value="Email address" style="rounded=0;whiteSpace=wrap;html=1;fillColor=#d5e8d4;strokeColor=#82b366;" parent="1" vertex="1"><mxGeometry x="238" y="190" width="280" height="60" as="geometry"/></mxCell><mxCell id="7" value="Password" style="rounded=0;whiteSpace=wrap;html=1;fillColor=#d0cee2;strokeColor=#56517e;" parent="1" vertex="1"><mxGeometry x="240" y="270" width="280" height="50" as="geometry"/></mxCell><mxCell id="8" value="Register" style="rounded=0;whiteSpace=wrap;html=1;fillColor=#f5f5f5;strokeColor=#666666;fontColor=#333333;" parent="1" vertex="1"><mxGeometry x="318" y="340" width="120" height="30" as="geometry"/></mxCell></root></mxGraphModel></diagram></mxfile>